<?xml version="1.0" encoding="UTF-8" standalone="no"?>
<!DOCTYPE svg PUBLIC "-//W3C//DTD SVG 1.1//EN"
 "http://www.w3.org/Graphics/SVG/1.1/DTD/svg11.dtd">
<!-- Generated by graphviz version 7.0.6 (0)
 -->
<!-- Pages: 1 -->
<svg width="939pt" height="156pt"
 viewBox="0.00 0.00 939.00 156.00" xmlns="http://www.w3.org/2000/svg" xmlns:xlink="http://www.w3.org/1999/xlink">
<g id="graph0" class="graph" transform="scale(1 1) rotate(0) translate(4 152)">
<polygon fill="white" stroke="none" points="-4,4 -4,-152 935,-152 935,4 -4,4"/>
<!-- 5766903360 -->
<g id="node1" class="node">
<title>5766903360</title>
<polygon fill="none" stroke="black" points="5,-111.5 5,-147.5 133,-147.5 133,-111.5 5,-111.5"/>
<text text-anchor="middle" x="15" y="-125.8" font-family="Times,serif" font-size="14.00"> </text>
<polyline fill="none" stroke="black" points="25,-111.5 25,-147.5"/>
<text text-anchor="middle" x="52" y="-125.8" font-family="Times,serif" font-size="14.00">2.0000</text>
<polyline fill="none" stroke="black" points="79,-111.5 79,-147.5"/>
<text text-anchor="middle" x="106" y="-125.8" font-family="Times,serif" font-size="14.00">6.0000</text>
</g>
<!-- *5766905808 -->
<g id="node10" class="node">
<title>*5766905808</title>
<ellipse fill="none" stroke="black" cx="201" cy="-101.5" rx="27" ry="18"/>
<text text-anchor="middle" x="201" y="-97.8" font-family="Times,serif" font-size="14.00">*</text>
</g>
<!-- 5766903360&#45;&gt;*5766905808 -->
<g id="edge9" class="edge">
<title>5766903360&#45;&gt;*5766905808</title>
<path fill="none" stroke="black" d="M132.72,-115.99C143.33,-113.71 154.03,-111.4 163.68,-109.32"/>
<polygon fill="black" stroke="black" points="164.32,-112.76 173.36,-107.24 162.85,-105.92 164.32,-112.76"/>
</g>
<!-- 5767137888 -->
<g id="node2" class="node">
<title>5767137888</title>
<polygon fill="none" stroke="black" points="793,-27.5 793,-63.5 931,-63.5 931,-27.5 793,-27.5"/>
<text text-anchor="middle" x="805.5" y="-41.8" font-family="Times,serif" font-size="14.00">L</text>
<polyline fill="none" stroke="black" points="818,-27.5 818,-63.5"/>
<text text-anchor="middle" x="847.5" y="-41.8" font-family="Times,serif" font-size="14.00">&#45;8.0000</text>
<polyline fill="none" stroke="black" points="877,-27.5 877,-63.5"/>
<text text-anchor="middle" x="904" y="-41.8" font-family="Times,serif" font-size="14.00">1.0000</text>
</g>
<!-- *5767137888 -->
<g id="node3" class="node">
<title>*5767137888</title>
<ellipse fill="none" stroke="black" cx="730" cy="-45.5" rx="27" ry="18"/>
<text text-anchor="middle" x="730" y="-41.8" font-family="Times,serif" font-size="14.00">*</text>
</g>
<!-- *5767137888&#45;&gt;5767137888 -->
<g id="edge1" class="edge">
<title>*5767137888&#45;&gt;5767137888</title>
<path fill="none" stroke="black" d="M757.31,-45.5C764.66,-45.5 773.06,-45.5 781.81,-45.5"/>
<polygon fill="black" stroke="black" points="781.53,-49 791.53,-45.5 781.53,-42 781.53,-49"/>
</g>
<!-- 5767145616 -->
<g id="node4" class="node">
<title>5767145616</title>
<polygon fill="none" stroke="black" points="531,-55.5 531,-91.5 667,-91.5 667,-55.5 531,-55.5"/>
<text text-anchor="middle" x="542.5" y="-69.8" font-family="Times,serif" font-size="14.00">d</text>
<polyline fill="none" stroke="black" points="554,-55.5 554,-91.5"/>
<text text-anchor="middle" x="581" y="-69.8" font-family="Times,serif" font-size="14.00">4.0000</text>
<polyline fill="none" stroke="black" points="608,-55.5 608,-91.5"/>
<text text-anchor="middle" x="637.5" y="-69.8" font-family="Times,serif" font-size="14.00">&#45;2.0000</text>
</g>
<!-- 5767145616&#45;&gt;*5767137888 -->
<g id="edge8" class="edge">
<title>5767145616&#45;&gt;*5767137888</title>
<path fill="none" stroke="black" d="M666.77,-59.01C675.79,-57.05 684.76,-55.1 692.96,-53.32"/>
<polygon fill="black" stroke="black" points="693.46,-56.8 702.49,-51.26 691.97,-49.96 693.46,-56.8"/>
</g>
<!-- +5767145616 -->
<g id="node5" class="node">
<title>+5767145616</title>
<ellipse fill="none" stroke="black" cx="468" cy="-73.5" rx="27" ry="18"/>
<text text-anchor="middle" x="468" y="-69.8" font-family="Times,serif" font-size="14.00">+</text>
</g>
<!-- +5767145616&#45;&gt;5767145616 -->
<g id="edge2" class="edge">
<title>+5767145616&#45;&gt;5767145616</title>
<path fill="none" stroke="black" d="M495.42,-73.5C502.69,-73.5 510.98,-73.5 519.61,-73.5"/>
<polygon fill="black" stroke="black" points="519.6,-77 529.6,-73.5 519.6,-70 519.6,-77"/>
</g>
<!-- 5766904560 -->
<g id="node6" class="node">
<title>5766904560</title>
<polygon fill="none" stroke="black" points="532.5,-0.5 532.5,-36.5 665.5,-36.5 665.5,-0.5 532.5,-0.5"/>
<text text-anchor="middle" x="542.5" y="-14.8" font-family="Times,serif" font-size="14.00"> </text>
<polyline fill="none" stroke="black" points="552.5,-0.5 552.5,-36.5"/>
<text text-anchor="middle" x="582" y="-14.8" font-family="Times,serif" font-size="14.00">&#45;2.0000</text>
<polyline fill="none" stroke="black" points="611.5,-0.5 611.5,-36.5"/>
<text text-anchor="middle" x="638.5" y="-14.8" font-family="Times,serif" font-size="14.00">4.0000</text>
</g>
<!-- 5766904560&#45;&gt;*5767137888 -->
<g id="edge4" class="edge">
<title>5766904560&#45;&gt;*5767137888</title>
<path fill="none" stroke="black" d="M665.26,-32.16C674.71,-34.14 684.14,-36.11 692.73,-37.91"/>
<polygon fill="black" stroke="black" points="691.88,-41.31 702.38,-39.93 693.31,-34.45 691.88,-41.31"/>
</g>
<!-- 4566248816 -->
<g id="node7" class="node">
<title>4566248816</title>
<polygon fill="none" stroke="black" points="264.5,-28.5 264.5,-64.5 404.5,-64.5 404.5,-28.5 264.5,-28.5"/>
<text text-anchor="middle" x="274.5" y="-42.8" font-family="Times,serif" font-size="14.00"> </text>
<polyline fill="none" stroke="black" points="284.5,-28.5 284.5,-64.5"/>
<text text-anchor="middle" x="315" y="-42.8" font-family="Times,serif" font-size="14.00">10.0000</text>
<polyline fill="none" stroke="black" points="345.5,-28.5 345.5,-64.5"/>
<text text-anchor="middle" x="375" y="-42.8" font-family="Times,serif" font-size="14.00">&#45;2.0000</text>
</g>
<!-- 4566248816&#45;&gt;+5767145616 -->
<g id="edge5" class="edge">
<title>4566248816&#45;&gt;+5767145616</title>
<path fill="none" stroke="black" d="M404.33,-60.63C413.45,-62.51 422.5,-64.36 430.76,-66.06"/>
<polygon fill="black" stroke="black" points="429.86,-69.45 440.36,-68.03 431.27,-62.59 429.86,-69.45"/>
</g>
<!-- 4566249392 -->
<g id="node8" class="node">
<title>4566249392</title>
<polygon fill="none" stroke="black" points="0,-56.5 0,-92.5 138,-92.5 138,-56.5 0,-56.5"/>
<text text-anchor="middle" x="10" y="-70.8" font-family="Times,serif" font-size="14.00"> </text>
<polyline fill="none" stroke="black" points="20,-56.5 20,-92.5"/>
<text text-anchor="middle" x="49.5" y="-70.8" font-family="Times,serif" font-size="14.00">&#45;3.0000</text>
<polyline fill="none" stroke="black" points="79,-56.5 79,-92.5"/>
<text text-anchor="middle" x="108.5" y="-70.8" font-family="Times,serif" font-size="14.00">&#45;4.0000</text>
</g>
<!-- 4566249392&#45;&gt;*5766905808 -->
<g id="edge7" class="edge">
<title>4566249392&#45;&gt;*5766905808</title>
<path fill="none" stroke="black" d="M137.67,-88.55C146.54,-90.4 155.34,-92.22 163.42,-93.9"/>
<polygon fill="black" stroke="black" points="162.66,-97.32 173.17,-95.93 164.09,-90.47 162.66,-97.32"/>
</g>
<!-- 5766905808 -->
<g id="node9" class="node">
<title>5766905808</title>
<polygon fill="none" stroke="black" points="264,-83.5 264,-119.5 405,-119.5 405,-83.5 264,-83.5"/>
<text text-anchor="middle" x="275.5" y="-97.8" font-family="Times,serif" font-size="14.00">e</text>
<polyline fill="none" stroke="black" points="287,-83.5 287,-119.5"/>
<text text-anchor="middle" x="316.5" y="-97.8" font-family="Times,serif" font-size="14.00">&#45;6.0000</text>
<polyline fill="none" stroke="black" points="346,-83.5 346,-119.5"/>
<text text-anchor="middle" x="375.5" y="-97.8" font-family="Times,serif" font-size="14.00">&#45;2.0000</text>
</g>
<!-- 5766905808&#45;&gt;+5767145616 -->
<g id="edge6" class="edge">
<title>5766905808&#45;&gt;+5767145616</title>
<path fill="none" stroke="black" d="M404.72,-86.76C413.61,-84.87 422.42,-82.99 430.5,-81.27"/>
<polygon fill="black" stroke="black" points="431.19,-84.7 440.24,-79.2 429.73,-77.86 431.19,-84.7"/>
</g>
<!-- *5766905808&#45;&gt;5766905808 -->
<g id="edge3" class="edge">
<title>*5766905808&#45;&gt;5766905808</title>
<path fill="none" stroke="black" d="M228.29,-101.5C235.67,-101.5 244.1,-101.5 252.91,-101.5"/>
<polygon fill="black" stroke="black" points="252.7,-105 262.7,-101.5 252.7,-98 252.7,-105"/>
</g>
</g>
</svg>
