<?xml version="1.0" encoding="UTF-8" standalone="no"?>
<!DOCTYPE svg PUBLIC "-//W3C//DTD SVG 1.1//EN"
 "http://www.w3.org/Graphics/SVG/1.1/DTD/svg11.dtd">
<!-- Generated by graphviz version 7.0.6 (0)
 -->
<!-- Pages: 1 -->
<svg width="2019pt" height="210pt"
 viewBox="0.00 0.00 2019.00 209.50" xmlns="http://www.w3.org/2000/svg" xmlns:xlink="http://www.w3.org/1999/xlink">
<g id="graph0" class="graph" transform="scale(1 1) rotate(0) translate(4 205.5)">
<polygon fill="white" stroke="none" points="-4,4 -4,-205.5 2015,-205.5 2015,4 -4,4"/>
<!-- 5766901776 -->
<g id="node1" class="node">
<title>5766901776</title>
<polygon fill="none" stroke="black" points="0,-40 0,-76 140,-76 140,-40 0,-40"/>
<text text-anchor="middle" x="10" y="-54.3" font-family="Times,serif" font-size="14.00"> </text>
<polyline fill="none" stroke="black" points="20,-40 20,-76"/>
<text text-anchor="middle" x="49.5" y="-54.3" font-family="Times,serif" font-size="14.00">&#45;4.0000</text>
<polyline fill="none" stroke="black" points="79,-40 79,-76"/>
<text text-anchor="middle" x="109.5" y="-54.3" font-family="Times,serif" font-size="14.00">46.0000</text>
</g>
<!-- *5767145040 -->
<g id="node7" class="node">
<title>*5767145040</title>
<ellipse fill="none" stroke="black" cx="1001" cy="-47" rx="27" ry="18"/>
<text text-anchor="middle" x="1001" y="-43.3" font-family="Times,serif" font-size="14.00">*</text>
</g>
<!-- 5766901776&#45;&gt;*5767145040 -->
<g id="edge15" class="edge">
<title>5766901776&#45;&gt;*5767145040</title>
<path fill="none" stroke="black" d="M139.88,-51.92C192.9,-47.76 268.03,-43 334,-43 334,-43 334,-43 732,-43 814.24,-43 910.66,-44.91 962.48,-46.09"/>
<polygon fill="black" stroke="black" points="962.16,-49.58 972.24,-46.31 962.32,-42.58 962.16,-49.58"/>
</g>
<!-- *5766902352 -->
<g id="node9" class="node">
<title>*5766902352</title>
<ellipse fill="none" stroke="black" cx="203" cy="-127" rx="27" ry="18"/>
<text text-anchor="middle" x="203" y="-123.3" font-family="Times,serif" font-size="14.00">*</text>
</g>
<!-- 5766901776&#45;&gt;*5766902352 -->
<g id="edge30" class="edge">
<title>5766901776&#45;&gt;*5766902352</title>
<path fill="none" stroke="black" d="M105.08,-75.95C125.51,-86.71 151.29,-100.29 171.13,-110.74"/>
<polygon fill="black" stroke="black" points="169.36,-113.77 179.84,-115.33 172.63,-107.57 169.36,-113.77"/>
</g>
<!-- *5767143264 -->
<g id="node22" class="node">
<title>*5767143264</title>
<ellipse fill="none" stroke="black" cx="1537" cy="-23" rx="27" ry="18"/>
<text text-anchor="middle" x="1537" y="-19.3" font-family="Times,serif" font-size="14.00">*</text>
</g>
<!-- 5766901776&#45;&gt;*5767143264 -->
<g id="edge28" class="edge">
<title>5766901776&#45;&gt;*5767143264</title>
<path fill="none" stroke="black" d="M121.19,-40.12C173.58,-23.08 258.49,0 334,0 334,0 334,0 1270,0 1352.14,0 1448.01,-11.02 1499.25,-17.8"/>
<polygon fill="black" stroke="black" points="1498.51,-21.23 1508.89,-19.1 1499.44,-14.3 1498.51,-21.23"/>
</g>
<!-- +5766901632 -->
<g id="node25" class="node">
<title>+5766901632</title>
<ellipse fill="none" stroke="black" cx="731" cy="-102" rx="27" ry="18"/>
<text text-anchor="middle" x="731" y="-98.3" font-family="Times,serif" font-size="14.00">+</text>
</g>
<!-- 5766901776&#45;&gt;+5766901632 -->
<g id="edge20" class="edge">
<title>5766901776&#45;&gt;+5766901632</title>
<path fill="none" stroke="black" d="M139.8,-67.32C192.77,-73.7 267.88,-81 334,-81 334,-81 334,-81 468,-81 548.27,-81 641.92,-90.91 692.67,-97.12"/>
<polygon fill="black" stroke="black" points="692.17,-100.58 702.52,-98.35 693.03,-93.64 692.17,-100.58"/>
</g>
<!-- 5766901296 -->
<g id="node2" class="node">
<title>5766901296</title>
<polygon fill="none" stroke="black" points="530,-110 530,-146 668,-146 668,-110 530,-110"/>
<text text-anchor="middle" x="540" y="-124.3" font-family="Times,serif" font-size="14.00"> </text>
<polyline fill="none" stroke="black" points="550,-110 550,-146"/>
<text text-anchor="middle" x="579.5" y="-124.3" font-family="Times,serif" font-size="14.00">&#45;6.0000</text>
<polyline fill="none" stroke="black" points="609,-110 609,-146"/>
<text text-anchor="middle" x="638.5" y="-124.3" font-family="Times,serif" font-size="14.00">&#45;8.0000</text>
</g>
<!-- 5766901296&#45;&gt;+5766901632 -->
<g id="edge12" class="edge">
<title>5766901296&#45;&gt;+5766901632</title>
<path fill="none" stroke="black" d="M667.67,-114.47C676.54,-112.69 685.34,-110.93 693.42,-109.32"/>
<polygon fill="black" stroke="black" points="694.05,-112.76 703.16,-107.37 692.67,-105.9 694.05,-112.76"/>
</g>
<!-- +5766901296 -->
<g id="node3" class="node">
<title>+5766901296</title>
<ellipse fill="none" stroke="black" cx="467" cy="-128" rx="27" ry="18"/>
<text text-anchor="middle" x="467" y="-124.3" font-family="Times,serif" font-size="14.00">+</text>
</g>
<!-- +5766901296&#45;&gt;5766901296 -->
<g id="edge1" class="edge">
<title>+5766901296&#45;&gt;5766901296</title>
<path fill="none" stroke="black" d="M494.31,-128C501.66,-128 510.06,-128 518.81,-128"/>
<polygon fill="black" stroke="black" points="518.53,-131.5 528.53,-128 518.53,-124.5 518.53,-131.5"/>
</g>
<!-- 5767137840 -->
<g id="node4" class="node">
<title>5767137840</title>
<polygon fill="none" stroke="black" points="1064,-139 1064,-175 1206,-175 1206,-139 1064,-139"/>
<text text-anchor="middle" x="1074" y="-153.3" font-family="Times,serif" font-size="14.00"> </text>
<polyline fill="none" stroke="black" points="1084,-139 1084,-175"/>
<text text-anchor="middle" x="1118" y="-153.3" font-family="Times,serif" font-size="14.00">100.0000</text>
<polyline fill="none" stroke="black" points="1152,-139 1152,-175"/>
<text text-anchor="middle" x="1179" y="-153.3" font-family="Times,serif" font-size="14.00">1.0000</text>
</g>
<!-- relu5767142736 -->
<g id="node20" class="node">
<title>relu5767142736</title>
<ellipse fill="none" stroke="black" cx="1269" cy="-147" rx="27" ry="18"/>
<text text-anchor="middle" x="1269" y="-143.3" font-family="Times,serif" font-size="14.00">relu</text>
</g>
<!-- 5767137840&#45;&gt;relu5767142736 -->
<g id="edge26" class="edge">
<title>5767137840&#45;&gt;relu5767142736</title>
<path fill="none" stroke="black" d="M1205.87,-151.71C1214.41,-151.06 1222.86,-150.42 1230.66,-149.83"/>
<polygon fill="black" stroke="black" points="1230.69,-153.34 1240.39,-149.09 1230.16,-146.36 1230.69,-153.34"/>
</g>
<!-- *5767137840 -->
<g id="node5" class="node">
<title>*5767137840</title>
<ellipse fill="none" stroke="black" cx="1001" cy="-156" rx="27" ry="18"/>
<text text-anchor="middle" x="1001" y="-152.3" font-family="Times,serif" font-size="14.00">*</text>
</g>
<!-- *5767137840&#45;&gt;5767137840 -->
<g id="edge2" class="edge">
<title>*5767137840&#45;&gt;5767137840</title>
<path fill="none" stroke="black" d="M1028.39,-156.2C1035.75,-156.26 1044.14,-156.32 1052.91,-156.39"/>
<polygon fill="black" stroke="black" points="1052.63,-159.88 1062.66,-156.46 1052.68,-152.88 1052.63,-159.88"/>
</g>
<!-- 5767145040 -->
<g id="node6" class="node">
<title>5767145040</title>
<polygon fill="none" stroke="black" points="1065,-29 1065,-65 1205,-65 1205,-29 1065,-29"/>
<text text-anchor="middle" x="1075" y="-43.3" font-family="Times,serif" font-size="14.00"> </text>
<polyline fill="none" stroke="black" points="1085,-29 1085,-65"/>
<text text-anchor="middle" x="1115.5" y="-43.3" font-family="Times,serif" font-size="14.00">40.0000</text>
<polyline fill="none" stroke="black" points="1146,-29 1146,-65"/>
<text text-anchor="middle" x="1175.5" y="-43.3" font-family="Times,serif" font-size="14.00">&#45;3.0000</text>
</g>
<!-- +5767145760 -->
<g id="node18" class="node">
<title>+5767145760</title>
<ellipse fill="none" stroke="black" cx="1269" cy="-62" rx="27" ry="18"/>
<text text-anchor="middle" x="1269" y="-58.3" font-family="Times,serif" font-size="14.00">+</text>
</g>
<!-- 5767145040&#45;&gt;+5767145760 -->
<g id="edge17" class="edge">
<title>5767145040&#45;&gt;+5767145760</title>
<path fill="none" stroke="black" d="M1204.71,-54.81C1213.63,-55.82 1222.49,-56.83 1230.62,-57.75"/>
<polygon fill="black" stroke="black" points="1230.12,-61.22 1240.45,-58.87 1230.91,-54.26 1230.12,-61.22"/>
</g>
<!-- *5767145040&#45;&gt;5767145040 -->
<g id="edge3" class="edge">
<title>*5767145040&#45;&gt;5767145040</title>
<path fill="none" stroke="black" d="M1028.39,-47C1036.04,-47 1044.82,-47 1053.97,-47"/>
<polygon fill="black" stroke="black" points="1053.76,-50.5 1063.76,-47 1053.76,-43.5 1053.76,-50.5"/>
</g>
<!-- 5766902352 -->
<g id="node8" class="node">
<title>5766902352</title>
<polygon fill="none" stroke="black" points="266,-110 266,-146 404,-146 404,-110 266,-110"/>
<text text-anchor="middle" x="276" y="-124.3" font-family="Times,serif" font-size="14.00"> </text>
<polyline fill="none" stroke="black" points="286,-110 286,-146"/>
<text text-anchor="middle" x="315.5" y="-124.3" font-family="Times,serif" font-size="14.00">&#45;8.0000</text>
<polyline fill="none" stroke="black" points="345,-110 345,-146"/>
<text text-anchor="middle" x="374.5" y="-124.3" font-family="Times,serif" font-size="14.00">&#45;8.0000</text>
</g>
<!-- 5766902352&#45;&gt;+5766901296 -->
<g id="edge14" class="edge">
<title>5766902352&#45;&gt;+5766901296</title>
<path fill="none" stroke="black" d="M403.67,-128C412.19,-128 420.65,-128 428.46,-128"/>
<polygon fill="black" stroke="black" points="428.23,-131.5 438.23,-128 428.23,-124.5 428.23,-131.5"/>
</g>
<!-- *5766902352&#45;&gt;5766902352 -->
<g id="edge4" class="edge">
<title>*5766902352&#45;&gt;5766902352</title>
<path fill="none" stroke="black" d="M230.31,-127.2C237.66,-127.26 246.06,-127.32 254.81,-127.39"/>
<polygon fill="black" stroke="black" points="254.51,-130.89 264.53,-127.47 254.56,-123.89 254.51,-130.89"/>
</g>
<!-- 5767143024 -->
<g id="node10" class="node">
<title>5767143024</title>
<polygon fill="none" stroke="black" points="1872,-32 1872,-68 2011,-68 2011,-32 1872,-32"/>
<text text-anchor="middle" x="1882" y="-46.3" font-family="Times,serif" font-size="14.00"> </text>
<polyline fill="none" stroke="black" points="1892,-32 1892,-68"/>
<text text-anchor="middle" x="1924.5" y="-46.3" font-family="Times,serif" font-size="14.00">&#45;20.0000</text>
<polyline fill="none" stroke="black" points="1957,-32 1957,-68"/>
<text text-anchor="middle" x="1984" y="-46.3" font-family="Times,serif" font-size="14.00">1.0000</text>
</g>
<!-- +5767143024 -->
<g id="node11" class="node">
<title>+5767143024</title>
<ellipse fill="none" stroke="black" cx="1809" cy="-50" rx="27" ry="18"/>
<text text-anchor="middle" x="1809" y="-46.3" font-family="Times,serif" font-size="14.00">+</text>
</g>
<!-- +5767143024&#45;&gt;5767143024 -->
<g id="edge5" class="edge">
<title>+5767143024&#45;&gt;5767143024</title>
<path fill="none" stroke="black" d="M1836.41,-50C1843.66,-50 1851.91,-50 1860.53,-50"/>
<polygon fill="black" stroke="black" points="1860.5,-53.5 1870.5,-50 1860.5,-46.5 1860.5,-53.5"/>
</g>
<!-- 5766905472 -->
<g id="node12" class="node">
<title>5766905472</title>
<polygon fill="none" stroke="black" points="268.5,-165 268.5,-201 401.5,-201 401.5,-165 268.5,-165"/>
<text text-anchor="middle" x="278.5" y="-179.3" font-family="Times,serif" font-size="14.00"> </text>
<polyline fill="none" stroke="black" points="288.5,-165 288.5,-201"/>
<text text-anchor="middle" x="315.5" y="-179.3" font-family="Times,serif" font-size="14.00">2.0000</text>
<polyline fill="none" stroke="black" points="342.5,-165 342.5,-201"/>
<text text-anchor="middle" x="372" y="-179.3" font-family="Times,serif" font-size="14.00">&#45;8.0000</text>
</g>
<!-- 5766905472&#45;&gt;+5766901296 -->
<g id="edge18" class="edge">
<title>5766905472&#45;&gt;+5766901296</title>
<path fill="none" stroke="black" d="M381.84,-165.13C389.27,-162.14 396.87,-159.03 404,-156 413.8,-151.85 424.38,-147.15 433.98,-142.8"/>
<polygon fill="black" stroke="black" points="435.28,-146.06 442.92,-138.72 432.37,-139.69 435.28,-146.06"/>
</g>
<!-- 5767143600 -->
<g id="node13" class="node">
<title>5767143600</title>
<polygon fill="none" stroke="black" points="1602,-60 1602,-96 1744,-96 1744,-60 1602,-60"/>
<text text-anchor="middle" x="1612" y="-74.3" font-family="Times,serif" font-size="14.00"> </text>
<polyline fill="none" stroke="black" points="1622,-60 1622,-96"/>
<text text-anchor="middle" x="1656" y="-74.3" font-family="Times,serif" font-size="14.00">140.0000</text>
<polyline fill="none" stroke="black" points="1690,-60 1690,-96"/>
<text text-anchor="middle" x="1717" y="-74.3" font-family="Times,serif" font-size="14.00">1.0000</text>
</g>
<!-- 5767143600&#45;&gt;+5767143024 -->
<g id="edge22" class="edge">
<title>5767143600&#45;&gt;+5767143024</title>
<path fill="none" stroke="black" d="M1743.75,-63.43C1753.37,-61.42 1762.91,-59.42 1771.58,-57.61"/>
<polygon fill="black" stroke="black" points="1772.24,-61.05 1781.31,-55.58 1770.81,-54.2 1772.24,-61.05"/>
</g>
<!-- +5767143600 -->
<g id="node14" class="node">
<title>+5767143600</title>
<ellipse fill="none" stroke="black" cx="1537" cy="-78" rx="27" ry="18"/>
<text text-anchor="middle" x="1537" y="-74.3" font-family="Times,serif" font-size="14.00">+</text>
</g>
<!-- +5767143600&#45;&gt;5767143600 -->
<g id="edge6" class="edge">
<title>+5767143600&#45;&gt;5767143600</title>
<path fill="none" stroke="black" d="M1564.47,-78C1572.37,-78 1581.46,-78 1590.96,-78"/>
<polygon fill="black" stroke="black" points="1590.71,-81.5 1600.71,-78 1590.71,-74.5 1590.71,-81.5"/>
</g>
<!-- 5766904032 -->
<g id="node15" class="node">
<title>5766904032</title>
<polygon fill="none" stroke="black" points="1068.5,-84 1068.5,-120 1201.5,-120 1201.5,-84 1068.5,-84"/>
<text text-anchor="middle" x="1078.5" y="-98.3" font-family="Times,serif" font-size="14.00"> </text>
<polyline fill="none" stroke="black" points="1088.5,-84 1088.5,-120"/>
<text text-anchor="middle" x="1115.5" y="-98.3" font-family="Times,serif" font-size="14.00">0.0000</text>
<polyline fill="none" stroke="black" points="1142.5,-84 1142.5,-120"/>
<text text-anchor="middle" x="1172" y="-98.3" font-family="Times,serif" font-size="14.00">&#45;3.0000</text>
</g>
<!-- 5766904032&#45;&gt;+5767145760 -->
<g id="edge24" class="edge">
<title>5766904032&#45;&gt;+5767145760</title>
<path fill="none" stroke="black" d="M1195.05,-84.11C1208.16,-80.13 1221.64,-76.05 1233.39,-72.49"/>
<polygon fill="black" stroke="black" points="1234.05,-75.95 1242.6,-69.7 1232.02,-69.25 1234.05,-75.95"/>
</g>
<!-- relu5766904032 -->
<g id="node16" class="node">
<title>relu5766904032</title>
<ellipse fill="none" stroke="black" cx="1001" cy="-102" rx="27" ry="18"/>
<text text-anchor="middle" x="1001" y="-98.3" font-family="Times,serif" font-size="14.00">relu</text>
</g>
<!-- relu5766904032&#45;&gt;5766904032 -->
<g id="edge7" class="edge">
<title>relu5766904032&#45;&gt;5766904032</title>
<path fill="none" stroke="black" d="M1028.39,-102C1036.96,-102 1046.93,-102 1057.27,-102"/>
<polygon fill="black" stroke="black" points="1057.07,-105.5 1067.07,-102 1057.07,-98.5 1057.07,-105.5"/>
</g>
<!-- 5767145760 -->
<g id="node17" class="node">
<title>5767145760</title>
<polygon fill="none" stroke="black" points="1333,-44 1333,-80 1473,-80 1473,-44 1333,-44"/>
<text text-anchor="middle" x="1343" y="-58.3" font-family="Times,serif" font-size="14.00"> </text>
<polyline fill="none" stroke="black" points="1353,-44 1353,-80"/>
<text text-anchor="middle" x="1383.5" y="-58.3" font-family="Times,serif" font-size="14.00">40.0000</text>
<polyline fill="none" stroke="black" points="1414,-44 1414,-80"/>
<text text-anchor="middle" x="1443.5" y="-58.3" font-family="Times,serif" font-size="14.00">&#45;3.0000</text>
</g>
<!-- 5767145760&#45;&gt;+5767143600 -->
<g id="edge29" class="edge">
<title>5767145760&#45;&gt;+5767143600</title>
<path fill="none" stroke="black" d="M1472.71,-70.33C1481.63,-71.41 1490.49,-72.48 1498.62,-73.47"/>
<polygon fill="black" stroke="black" points="1498.1,-76.93 1508.45,-74.66 1498.94,-69.98 1498.1,-76.93"/>
</g>
<!-- 5767145760&#45;&gt;*5767143264 -->
<g id="edge21" class="edge">
<title>5767145760&#45;&gt;*5767143264</title>
<path fill="none" stroke="black" d="M1464.59,-44.1C1476.97,-40.44 1489.59,-36.71 1500.72,-33.42"/>
<polygon fill="black" stroke="black" points="1501.66,-36.8 1510.25,-30.61 1499.67,-30.08 1501.66,-36.8"/>
</g>
<!-- +5767145760&#45;&gt;5767145760 -->
<g id="edge8" class="edge">
<title>+5767145760&#45;&gt;5767145760</title>
<path fill="none" stroke="black" d="M1296.39,-62C1304.04,-62 1312.82,-62 1321.97,-62"/>
<polygon fill="black" stroke="black" points="1321.76,-65.5 1331.76,-62 1321.76,-58.5 1321.76,-65.5"/>
</g>
<!-- 5767142736 -->
<g id="node19" class="node">
<title>5767142736</title>
<polygon fill="none" stroke="black" points="1332,-119 1332,-155 1474,-155 1474,-119 1332,-119"/>
<text text-anchor="middle" x="1342" y="-133.3" font-family="Times,serif" font-size="14.00"> </text>
<polyline fill="none" stroke="black" points="1352,-119 1352,-155"/>
<text text-anchor="middle" x="1386" y="-133.3" font-family="Times,serif" font-size="14.00">100.0000</text>
<polyline fill="none" stroke="black" points="1420,-119 1420,-155"/>
<text text-anchor="middle" x="1447" y="-133.3" font-family="Times,serif" font-size="14.00">1.0000</text>
</g>
<!-- 5767142736&#45;&gt;+5767143600 -->
<g id="edge27" class="edge">
<title>5767142736&#45;&gt;+5767143600</title>
<path fill="none" stroke="black" d="M1443.96,-119.14C1463.03,-110.62 1485.55,-100.55 1503.54,-92.51"/>
<polygon fill="black" stroke="black" points="1504.73,-95.81 1512.43,-88.53 1501.88,-89.42 1504.73,-95.81"/>
</g>
<!-- relu5767142736&#45;&gt;5767142736 -->
<g id="edge9" class="edge">
<title>relu5767142736&#45;&gt;5767142736</title>
<path fill="none" stroke="black" d="M1296.08,-145.02C1303.47,-144.46 1311.94,-143.82 1320.8,-143.15"/>
<polygon fill="black" stroke="black" points="1320.95,-146.65 1330.66,-142.4 1320.42,-139.67 1320.95,-146.65"/>
</g>
<!-- 5767143264 -->
<g id="node21" class="node">
<title>5767143264</title>
<polygon fill="none" stroke="black" points="1600,-5 1600,-41 1746,-41 1746,-5 1600,-5"/>
<text text-anchor="middle" x="1610" y="-19.3" font-family="Times,serif" font-size="14.00"> </text>
<polyline fill="none" stroke="black" points="1620,-5 1620,-41"/>
<text text-anchor="middle" x="1656" y="-19.3" font-family="Times,serif" font-size="14.00">&#45;160.0000</text>
<polyline fill="none" stroke="black" points="1692,-5 1692,-41"/>
<text text-anchor="middle" x="1719" y="-19.3" font-family="Times,serif" font-size="14.00">1.0000</text>
</g>
<!-- 5767143264&#45;&gt;+5767143024 -->
<g id="edge19" class="edge">
<title>5767143264&#45;&gt;+5767143024</title>
<path fill="none" stroke="black" d="M1745.71,-37.45C1754.65,-39.25 1763.49,-41.03 1771.57,-42.66"/>
<polygon fill="black" stroke="black" points="1770.81,-46.08 1781.31,-44.62 1772.2,-39.22 1770.81,-46.08"/>
</g>
<!-- *5767143264&#45;&gt;5767143264 -->
<g id="edge10" class="edge">
<title>*5767143264&#45;&gt;5767143264</title>
<path fill="none" stroke="black" d="M1564.47,-23C1571.82,-23 1580.21,-23 1588.99,-23"/>
<polygon fill="black" stroke="black" points="1588.75,-26.5 1598.75,-23 1588.75,-19.5 1588.75,-26.5"/>
</g>
<!-- 5766901104 -->
<g id="node23" class="node">
<title>5766901104</title>
<polygon fill="none" stroke="black" points="2.5,-109 2.5,-145 137.5,-145 137.5,-109 2.5,-109"/>
<text text-anchor="middle" x="12.5" y="-123.3" font-family="Times,serif" font-size="14.00"> </text>
<polyline fill="none" stroke="black" points="22.5,-109 22.5,-145"/>
<text text-anchor="middle" x="49.5" y="-123.3" font-family="Times,serif" font-size="14.00">2.0000</text>
<polyline fill="none" stroke="black" points="76.5,-109 76.5,-145"/>
<text text-anchor="middle" x="107" y="-123.3" font-family="Times,serif" font-size="14.00">32.0000</text>
</g>
<!-- 5766901104&#45;&gt;*5766902352 -->
<g id="edge25" class="edge">
<title>5766901104&#45;&gt;*5766902352</title>
<path fill="none" stroke="black" d="M137.27,-127C146.5,-127 155.71,-127 164.17,-127"/>
<polygon fill="black" stroke="black" points="164.03,-130.5 174.03,-127 164.03,-123.5 164.03,-130.5"/>
</g>
<!-- 5766901632 -->
<g id="node24" class="node">
<title>5766901632</title>
<polygon fill="none" stroke="black" points="794,-84 794,-120 938,-120 938,-84 794,-84"/>
<text text-anchor="middle" x="804" y="-98.3" font-family="Times,serif" font-size="14.00"> </text>
<polyline fill="none" stroke="black" points="814,-84 814,-120"/>
<text text-anchor="middle" x="846.5" y="-98.3" font-family="Times,serif" font-size="14.00">&#45;10.0000</text>
<polyline fill="none" stroke="black" points="879,-84 879,-120"/>
<text text-anchor="middle" x="908.5" y="-98.3" font-family="Times,serif" font-size="14.00">&#45;8.0000</text>
</g>
<!-- 5766901632&#45;&gt;*5767137840 -->
<g id="edge23" class="edge">
<title>5766901632&#45;&gt;*5767137840</title>
<path fill="none" stroke="black" d="M911.29,-119.98C929.51,-127.38 950.25,-135.8 967.09,-142.64"/>
<polygon fill="black" stroke="black" points="965.55,-145.79 976.13,-146.31 968.18,-139.3 965.55,-145.79"/>
</g>
<!-- 5766901632&#45;&gt;*5767145040 -->
<g id="edge13" class="edge">
<title>5766901632&#45;&gt;*5767145040</title>
<path fill="none" stroke="black" d="M910.18,-84.14C928.6,-76.53 949.75,-67.78 966.9,-60.69"/>
<polygon fill="black" stroke="black" points="968.22,-63.93 976.12,-56.88 965.54,-57.46 968.22,-63.93"/>
</g>
<!-- 5766901632&#45;&gt;relu5766904032 -->
<g id="edge16" class="edge">
<title>5766901632&#45;&gt;relu5766904032</title>
<path fill="none" stroke="black" d="M937.78,-102C946.17,-102 954.47,-102 962.13,-102"/>
<polygon fill="black" stroke="black" points="962.07,-105.5 972.07,-102 962.07,-98.5 962.07,-105.5"/>
</g>
<!-- +5766901632&#45;&gt;5766901632 -->
<g id="edge11" class="edge">
<title>+5766901632&#45;&gt;5766901632</title>
<path fill="none" stroke="black" d="M758.28,-102C765.62,-102 774.02,-102 782.8,-102"/>
<polygon fill="black" stroke="black" points="782.57,-105.5 792.57,-102 782.57,-98.5 782.57,-105.5"/>
</g>
</g>
</svg>
