<?xml version="1.0" encoding="UTF-8" standalone="no"?>
<!DOCTYPE svg PUBLIC "-//W3C//DTD SVG 1.1//EN"
 "http://www.w3.org/Graphics/SVG/1.1/DTD/svg11.dtd">
<!-- Generated by graphviz version 7.0.6 (0)
 -->
<!-- Pages: 1 -->
<svg width="926pt" height="154pt"
 viewBox="0.00 0.00 926.00 154.00" xmlns="http://www.w3.org/2000/svg" xmlns:xlink="http://www.w3.org/1999/xlink">
<g id="graph0" class="graph" transform="scale(1 1) rotate(0) translate(4 150)">
<polygon fill="white" stroke="none" points="-4,4 -4,-150 922,-150 922,4 -4,4"/>
<!-- 4410014256 -->
<g id="node1" class="node">
<title>4410014256</title>
<polygon fill="none" stroke="black" points="259,-27.5 259,-63.5 395,-63.5 395,-27.5 259,-27.5"/>
<text text-anchor="middle" x="270.5" y="-41.8" font-family="Times,serif" font-size="14.00">e</text>
<polyline fill="none" stroke="black" points="282,-27.5 282,-63.5"/>
<text text-anchor="middle" x="311.5" y="-41.8" font-family="Times,serif" font-size="14.00">&#45;6.0000</text>
<polyline fill="none" stroke="black" points="341,-27.5 341,-63.5"/>
<text text-anchor="middle" x="368" y="-41.8" font-family="Times,serif" font-size="14.00">0.0000</text>
</g>
<!-- +4571927872 -->
<g id="node9" class="node">
<title>+4571927872</title>
<ellipse fill="none" stroke="black" cx="458" cy="-72.5" rx="27" ry="18"/>
<text text-anchor="middle" x="458" y="-68.8" font-family="Times,serif" font-size="14.00">+</text>
</g>
<!-- 4410014256&#45;&gt;+4571927872 -->
<g id="edge5" class="edge">
<title>4410014256&#45;&gt;+4571927872</title>
<path fill="none" stroke="black" d="M394.77,-59.47C403.61,-61.32 412.39,-63.16 420.45,-64.85"/>
<polygon fill="black" stroke="black" points="419.68,-68.26 430.18,-66.89 421.11,-61.41 419.68,-68.26"/>
</g>
<!-- *4410014256 -->
<g id="node2" class="node">
<title>*4410014256</title>
<ellipse fill="none" stroke="black" cx="196" cy="-45.5" rx="27" ry="18"/>
<text text-anchor="middle" x="196" y="-41.8" font-family="Times,serif" font-size="14.00">*</text>
</g>
<!-- *4410014256&#45;&gt;4410014256 -->
<g id="edge1" class="edge">
<title>*4410014256&#45;&gt;4410014256</title>
<path fill="none" stroke="black" d="M223.42,-45.5C230.69,-45.5 238.98,-45.5 247.61,-45.5"/>
<polygon fill="black" stroke="black" points="247.6,-49 257.6,-45.5 247.6,-42 247.6,-49"/>
</g>
<!-- 4410010272 -->
<g id="node3" class="node">
<title>4410010272</title>
<polygon fill="none" stroke="black" points="2.5,-55.5 2.5,-91.5 130.5,-91.5 130.5,-55.5 2.5,-55.5"/>
<text text-anchor="middle" x="12.5" y="-69.8" font-family="Times,serif" font-size="14.00"> </text>
<polyline fill="none" stroke="black" points="22.5,-55.5 22.5,-91.5"/>
<text text-anchor="middle" x="49.5" y="-69.8" font-family="Times,serif" font-size="14.00">2.0000</text>
<polyline fill="none" stroke="black" points="76.5,-55.5 76.5,-91.5"/>
<text text-anchor="middle" x="103.5" y="-69.8" font-family="Times,serif" font-size="14.00">0.0000</text>
</g>
<!-- 4410010272&#45;&gt;*4410014256 -->
<g id="edge6" class="edge">
<title>4410010272&#45;&gt;*4410014256</title>
<path fill="none" stroke="black" d="M130.13,-59.75C139.94,-57.59 149.78,-55.43 158.73,-53.46"/>
<polygon fill="black" stroke="black" points="159.41,-56.9 168.43,-51.34 157.91,-50.06 159.41,-56.9"/>
</g>
<!-- 4410013440 -->
<g id="node4" class="node">
<title>4410013440</title>
<polygon fill="none" stroke="black" points="259.5,-82.5 259.5,-118.5 394.5,-118.5 394.5,-82.5 259.5,-82.5"/>
<text text-anchor="middle" x="269.5" y="-96.8" font-family="Times,serif" font-size="14.00"> </text>
<polyline fill="none" stroke="black" points="279.5,-82.5 279.5,-118.5"/>
<text text-anchor="middle" x="310" y="-96.8" font-family="Times,serif" font-size="14.00">10.0000</text>
<polyline fill="none" stroke="black" points="340.5,-82.5 340.5,-118.5"/>
<text text-anchor="middle" x="367.5" y="-96.8" font-family="Times,serif" font-size="14.00">0.0000</text>
</g>
<!-- 4410013440&#45;&gt;+4571927872 -->
<g id="edge4" class="edge">
<title>4410013440&#45;&gt;+4571927872</title>
<path fill="none" stroke="black" d="M394.39,-86.09C403.45,-84.12 412.47,-82.17 420.71,-80.38"/>
<polygon fill="black" stroke="black" points="421.28,-83.84 430.31,-78.29 419.79,-76.99 421.28,-83.84"/>
</g>
<!-- 4410010896 -->
<g id="node5" class="node">
<title>4410010896</title>
<polygon fill="none" stroke="black" points="521,-109.5 521,-145.5 654,-145.5 654,-109.5 521,-109.5"/>
<text text-anchor="middle" x="531" y="-123.8" font-family="Times,serif" font-size="14.00"> </text>
<polyline fill="none" stroke="black" points="541,-109.5 541,-145.5"/>
<text text-anchor="middle" x="570.5" y="-123.8" font-family="Times,serif" font-size="14.00">&#45;2.0000</text>
<polyline fill="none" stroke="black" points="600,-109.5 600,-145.5"/>
<text text-anchor="middle" x="627" y="-123.8" font-family="Times,serif" font-size="14.00">0.0000</text>
</g>
<!-- *4571923744 -->
<g id="node7" class="node">
<title>*4571923744</title>
<ellipse fill="none" stroke="black" cx="717" cy="-99.5" rx="27" ry="18"/>
<text text-anchor="middle" x="717" y="-95.8" font-family="Times,serif" font-size="14.00">*</text>
</g>
<!-- 4410010896&#45;&gt;*4571923744 -->
<g id="edge7" class="edge">
<title>4410010896&#45;&gt;*4571923744</title>
<path fill="none" stroke="black" d="M653.74,-113.17C662.74,-111.2 671.69,-109.23 679.89,-107.43"/>
<polygon fill="black" stroke="black" points="680.41,-110.9 689.43,-105.34 678.91,-104.06 680.41,-110.9"/>
</g>
<!-- 4571923744 -->
<g id="node6" class="node">
<title>4571923744</title>
<polygon fill="none" stroke="black" points="780,-81.5 780,-117.5 918,-117.5 918,-81.5 780,-81.5"/>
<text text-anchor="middle" x="792.5" y="-95.8" font-family="Times,serif" font-size="14.00">L</text>
<polyline fill="none" stroke="black" points="805,-81.5 805,-117.5"/>
<text text-anchor="middle" x="834.5" y="-95.8" font-family="Times,serif" font-size="14.00">&#45;8.0000</text>
<polyline fill="none" stroke="black" points="864,-81.5 864,-117.5"/>
<text text-anchor="middle" x="891" y="-95.8" font-family="Times,serif" font-size="14.00">0.0000</text>
</g>
<!-- *4571923744&#45;&gt;4571923744 -->
<g id="edge2" class="edge">
<title>*4571923744&#45;&gt;4571923744</title>
<path fill="none" stroke="black" d="M744.31,-99.5C751.66,-99.5 760.06,-99.5 768.81,-99.5"/>
<polygon fill="black" stroke="black" points="768.53,-103 778.53,-99.5 768.53,-96 768.53,-103"/>
</g>
<!-- 4571927872 -->
<g id="node8" class="node">
<title>4571927872</title>
<polygon fill="none" stroke="black" points="522,-54.5 522,-90.5 653,-90.5 653,-54.5 522,-54.5"/>
<text text-anchor="middle" x="533.5" y="-68.8" font-family="Times,serif" font-size="14.00">d</text>
<polyline fill="none" stroke="black" points="545,-54.5 545,-90.5"/>
<text text-anchor="middle" x="572" y="-68.8" font-family="Times,serif" font-size="14.00">4.0000</text>
<polyline fill="none" stroke="black" points="599,-54.5 599,-90.5"/>
<text text-anchor="middle" x="626" y="-68.8" font-family="Times,serif" font-size="14.00">0.0000</text>
</g>
<!-- 4571927872&#45;&gt;*4571923744 -->
<g id="edge8" class="edge">
<title>4571927872&#45;&gt;*4571923744</title>
<path fill="none" stroke="black" d="M653,-86.16C662.15,-88.1 671.28,-90.03 679.64,-91.8"/>
<polygon fill="black" stroke="black" points="678.87,-95.21 689.37,-93.86 680.32,-88.37 678.87,-95.21"/>
</g>
<!-- +4571927872&#45;&gt;4571927872 -->
<g id="edge3" class="edge">
<title>+4571927872&#45;&gt;4571927872</title>
<path fill="none" stroke="black" d="M485.42,-72.5C493.09,-72.5 501.88,-72.5 511,-72.5"/>
<polygon fill="black" stroke="black" points="510.73,-76 520.73,-72.5 510.73,-69 510.73,-76"/>
</g>
<!-- 4410013584 -->
<g id="node10" class="node">
<title>4410013584</title>
<polygon fill="none" stroke="black" points="0,-0.5 0,-36.5 133,-36.5 133,-0.5 0,-0.5"/>
<text text-anchor="middle" x="10" y="-14.8" font-family="Times,serif" font-size="14.00"> </text>
<polyline fill="none" stroke="black" points="20,-0.5 20,-36.5"/>
<text text-anchor="middle" x="49.5" y="-14.8" font-family="Times,serif" font-size="14.00">&#45;3.0000</text>
<polyline fill="none" stroke="black" points="79,-0.5 79,-36.5"/>
<text text-anchor="middle" x="106" y="-14.8" font-family="Times,serif" font-size="14.00">0.0000</text>
</g>
<!-- 4410013584&#45;&gt;*4410014256 -->
<g id="edge9" class="edge">
<title>4410013584&#45;&gt;*4410014256</title>
<path fill="none" stroke="black" d="M132.74,-32.32C141.74,-34.22 150.69,-36.12 158.89,-37.85"/>
<polygon fill="black" stroke="black" points="157.92,-41.22 168.42,-39.87 159.37,-34.38 157.92,-41.22"/>
</g>
</g>
</svg>
